<svg width="157" height="157" fill="none" xmlns="http://www.w3.org/2000/svg"><path d="M37.603 1.625C35.901.641 33.933.187 31.777.187h-8.55a.557.557 0 0 0-.567.568v21.261c0 .34.265.568.568.568h8.55c2.194 0 4.123-.454 5.863-1.4 1.703-.946 3.065-2.27 4.01-3.935.946-1.702 1.438-3.594 1.438-5.75s-.492-4.124-1.438-5.826c-.983-1.74-2.345-3.064-4.048-4.048ZM35.977 16.19c-1.173 1.21-2.724 1.816-4.653 1.816h-3.519V4.803h3.518c1.968 0 3.519.605 4.654 1.854 1.173 1.21 1.74 2.837 1.74 4.842-.038 1.93-.605 3.48-1.74 4.691ZM53.834 13.013l-2.951-.719c-.568-.151-.946-.265-1.173-.416-.227-.152-.34-.416-.34-.795 0-.378.151-.68.416-.87.265-.189.68-.302 1.135-.302.567 0 1.021.15 1.362.416.227.189.416.416.492.68a.568.568 0 0 0 .567.417h3.632c.34 0 .643-.303.567-.681-.189-1.249-.794-2.27-1.816-3.102-1.21-.946-2.761-1.438-4.69-1.438-1.968 0-3.557.492-4.767 1.476-1.211.983-1.816 2.27-1.816 3.858 0 2.46 1.513 4.048 4.502 4.73l2.534.642c.454.076.795.227 1.06.417.264.189.378.453.378.832 0 .416-.151.719-.492.946-.34.227-.757.302-1.324.302-.643 0-1.135-.151-1.551-.454-.303-.227-.492-.492-.568-.794a.602.602 0 0 0-.567-.454h-3.67a.568.568 0 0 0-.567.68 5.109 5.109 0 0 0 2.005 3.179c1.286.945 2.913 1.4 4.918 1.4 2.118 0 3.783-.492 4.994-1.476 1.248-.984 1.853-2.27 1.853-3.897 0-1.135-.34-2.118-.983-2.95-.681-.72-1.703-1.287-3.14-1.627ZM75.964 6.807h-3.707a.557.557 0 0 0-.568.567v1.249c-.378-.832-.983-1.324-1.74-1.74-.908-.492-2.005-.606-3.102-.606-1.513 0-2.875.34-4.048 1.06-1.173.68-2.08 1.664-2.762 2.95-.643 1.287-.983 2.724-.983 4.389 0 1.664.34 3.14.983 4.388.644 1.287 1.551 2.27 2.724 2.951 1.173.719 2.535 1.06 4.048 1.06.984 0 1.892-.152 2.724-.492.832-.303 1.551-.757 2.118-1.362v8.21c0 .34.265.567.568.567h3.708c.34 0 .567-.265.567-.568V7.412a.539.539 0 0 0-.53-.605Zm-5.41 10.782c-.718.719-1.626 1.097-2.761 1.097-1.135 0-2.043-.378-2.724-1.097-.681-.757-1.022-1.702-1.022-2.875s.34-2.157 1.022-2.876c.68-.718 1.589-1.097 2.724-1.097 1.135 0 2.08.379 2.761 1.098.72.718 1.06 1.702 1.06 2.875.037 1.172-.34 2.118-1.06 2.875ZM92.8 6.809h-3.745a.557.557 0 0 0-.568.567v8.512c0 .87-.227 1.589-.68 2.119-.455.53-1.098.794-1.968.794-.87 0-1.513-.227-1.967-.643-.454-.416-.681-1.135-.681-2.119V7.414a.557.557 0 0 0-.568-.568h-3.745a.557.557 0 0 0-.567.568v9.382c0 1.93.53 3.48 1.55 4.578 1.022 1.135 2.498 1.664 4.39 1.664 1.02 0 1.928-.189 2.76-.567.833-.379 1.4-.946 1.968-1.665v1.21c0 .341.265.568.567.568h3.33c.34 0 .567-.265.567-.567V7.414c-.076-.34-.34-.605-.643-.605ZM112.018 6.81h-2.989a.557.557 0 0 0-.567.567v.946c-1.173-1.4-3.216-2.08-5.448-2.08-1.551 0-2.913.34-4.123 1.058-1.211.72-2.119 1.703-2.8 2.99-.643 1.285-.984 2.799-.984 4.501 0 1.627.303 3.064.908 4.313.606 1.248 1.476 2.194 2.61 2.875 1.136.681 2.422 1.021 3.897 1.021 1.097 0 2.157-.189 3.103-.605.945-.416 2.269-.946 2.799-1.664v1.21c0 .34.265.568.568.568h2.95a.557.557 0 0 0 .568-.568V7.415a.494.494 0 0 0-.492-.605Zm-5.41 10.744c-.719.719-1.627 1.097-2.762 1.097-1.134 0-2.042-.378-2.723-1.097-.681-.757-1.022-1.703-1.022-2.875 0-1.173.341-2.157 1.022-2.876.681-.718 1.589-1.097 2.723-1.097 1.135 0 2.081.379 2.762 1.097.719.72 1.059 1.665 1.059 2.876 0 1.172-.34 2.118-1.059 2.875ZM124.351 6.732a7.952 7.952 0 0 0-.945-.076c-.908 0-1.703.19-2.346.568-.643.378-1.438 1.437-1.702 2.156V7.337a.557.557 0 0 0-.568-.567h-3.329a.557.557 0 0 0-.567.567V21.94c0 .34.264.568.567.568h3.707a.557.557 0 0 0 .568-.568v-6.81c0-1.324.378-2.383 1.135-3.102.757-.719 1.854-1.097 3.253-1.097h.152c.34 0 .567-.265.567-.567V7.262c.038-.227-.189-.492-.492-.53ZM141.716 13.884c0-1.475-.341-2.762-.984-3.934-.681-1.173-1.589-2.043-2.799-2.724-1.211-.643-2.611-.984-4.162-.984-1.589 0-2.988.34-4.275 1.022-1.248.68-2.232 1.664-2.95 2.95-.681 1.287-1.06 2.762-1.06 4.427 0 1.664.341 3.14 1.06 4.388a6.942 6.942 0 0 0 2.95 2.951c1.249.719 2.724 1.06 4.389 1.06 2.043 0 3.783-.492 5.221-1.514 1.21-.87 2.042-1.93 2.496-3.253a.58.58 0 0 0-.567-.757h-3.67a.645.645 0 0 0-.491.265c-.227.34-.568.605-.984.87-.568.302-1.211.454-2.005.454-1.022 0-1.854-.265-2.497-.832-.643-.568-.984-1.287-1.021-2.232h11.198c.075-.644.151-1.325.151-2.157Zm-11.349-1.06c.037-.794.378-1.437.945-1.89.568-.455 1.324-.72 2.232-.72.908 0 1.627.227 2.232.72.568.453.908 1.096.908 1.89h-6.317ZM155.978 14.753c-.681-.832-1.702-1.4-3.14-1.74l-2.951-.719c-.567-.151-.946-.265-1.173-.416-.227-.152-.34-.416-.34-.795 0-.378.151-.68.416-.87.265-.189.681-.302 1.135-.302.567 0 1.021.15 1.362.416.227.189.416.416.492.68a.567.567 0 0 0 .567.417h3.632c.34 0 .643-.303.567-.681-.189-1.249-.794-2.27-1.816-3.102-1.21-.946-2.761-1.438-4.691-1.438-1.967 0-3.556.492-4.766 1.476-1.211.983-1.816 2.27-1.816 3.858 0 2.46 1.513 4.048 4.502 4.73l2.534.642c.454.076.795.227 1.06.417.264.189.378.453.378.832 0 .416-.151.719-.492.946-.34.227-.756.302-1.324.302-.643 0-1.135-.151-1.551-.454-.303-.227-.492-.492-.567-.794a.603.603 0 0 0-.568-.454h-3.632a.568.568 0 0 0-.567.68 5.111 5.111 0 0 0 2.005 3.179c1.286.945 2.913 1.4 4.918 1.4 2.118 0 3.783-.492 4.994-1.476 1.248-.984 1.853-2.27 1.853-3.897 0-1.021-.34-2.005-1.021-2.837Z" fill="#002F87"></path><path d="M10.63 11.992V6.09H0v16.494h16.494V11.992h-5.863Zm0 4.955H5.676v-4.955h4.956v4.955ZM16.418 0H10.63v5.788h5.788V0Z" fill="#0071CE"></path></svg>