<svg xmlns="http://www.w3.org/2000/svg" viewBox="0 0 512 512"><defs><style>.cls-1{fill:transparent;}.cls-2{fill:#0065ff;}.cls-3{fill:#404040;}</style></defs><g id="Layer_2" data-name="Layer 2"><g id="Layer_1-2" data-name="Layer 1"><g id="software_square" data-name="software square"><rect class="cls-1" width="512" height="512"/><g id="_2by1" data-name="2by1"><path class="cls-2" d="M216.79,295.58a11.91,11.91,0,0,0-9.34,4.21q-3.7,4.21-3.71,12.71t3.71,12.74a12.36,12.36,0,0,0,18.64,0q3.71-4.25,3.71-13,0-8.21-3.73-12.44A11.88,11.88,0,0,0,216.79,295.58Z"/><path class="cls-2" d="M364.89,316.76a6.46,6.46,0,0,0-3,2.44,6.64,6.64,0,0,0,1.23,8.57q2.26,2,6.65,2a15.51,15.51,0,0,0,7.71-1.9,11.73,11.73,0,0,0,5-5.19,18.29,18.29,0,0,0,1.2-7.51v-2.75a55.18,55.18,0,0,1-12.25,2.84A27.91,27.91,0,0,0,364.89,316.76Z"/><path class="cls-2" d="M449.61,295.54a11.92,11.92,0,0,0-8.69,3.46,13.67,13.67,0,0,0-3.9,9.25h24.73c-.34-3.72-1.28-6.52-2.84-8.38A11.5,11.5,0,0,0,449.61,295.54Z"/><path class="cls-2" d="M94,256l59.68,116.15H498V256Zm93.71,72.7a14.18,14.18,0,0,1-6.32,5.13,23,23,0,0,1-9.34,1.82q-8.62,0-13.15-3.59t-5.78-10.63l7.42-1.17A10.4,10.4,0,0,0,164,327.1q2.85,2.37,8,2.37c3.45,0,6-.7,7.67-2.1a6.28,6.28,0,0,0,2.5-4.94,4.53,4.53,0,0,0-2.21-4q-1.53-1-7.67-2.55a70.45,70.45,0,0,1-11.44-3.6,11,11,0,0,1-6.49-10.16,11.33,11.33,0,0,1,1.36-5.48,12.08,12.08,0,0,1,3.69-4.19,15.62,15.62,0,0,1,4.77-2.19,22.67,22.67,0,0,1,6.49-.9,25.44,25.44,0,0,1,9.15,1.51,12.44,12.44,0,0,1,5.81,4.06,15.76,15.76,0,0,1,2.59,6.86l-7.34,1a8,8,0,0,0-2.9-5.34c-1.6-1.28-3.85-1.91-6.77-1.91-3.45,0-5.91.56-7.38,1.7a5,5,0,0,0-2.21,4,4.07,4.07,0,0,0,.92,2.62,6.62,6.62,0,0,0,2.87,2q1.13.4,6.63,1.91a91.1,91.1,0,0,1,11.11,3.49,11.16,11.16,0,0,1,4.94,3.94,11,11,0,0,1,1.8,6.42A12.58,12.58,0,0,1,187.71,328.7ZM235,325.33a18.2,18.2,0,0,1-7.47,7.61,21.78,21.78,0,0,1-10.69,2.71q-9.3,0-15-6T196,312.5q0-12.28,6.83-18.22a20.61,20.61,0,0,1,13.93-4.92,19.88,19.88,0,0,1,14.93,6q5.79,6,5.79,16.53Q237.51,320.43,235,325.33ZM264.2,296.2h-8.63v38.44H248.1V296.2h-6.63v-5.83h6.63v-4.72a20.58,20.58,0,0,1,.8-6.63,9.6,9.6,0,0,1,3.81-4.73q2.73-1.82,7.65-1.81a36.86,36.86,0,0,1,7,.75l-1.13,6.54a26,26,0,0,0-4.42-.41c-2.28,0-3.89.48-4.84,1.46s-1.41,2.79-1.41,5.46v4.09h8.63Zm17.63,39a12.83,12.83,0,0,1-6.33-1.29,7.3,7.3,0,0,1-3.17-3.4q-.91-2.12-.92-8.86V296.2h-5.5v-5.83h5.5v-11l7.46-4.5v15.47h7.55v5.83h-7.55v25.89a13.13,13.13,0,0,0,.4,4.13,3.09,3.09,0,0,0,1.29,1.46,5,5,0,0,0,2.57.54,23.48,23.48,0,0,0,3.29-.29l1.08,6.63A27.45,27.45,0,0,1,281.83,335.23Zm53.46-.59h-7.8l-7.05-26.51-1.71-7.55-9,34.06h-7.84l-13.55-44.27h7.76l7,25.55,2.63,9.51c.11-.47.87-3.52,2.29-9.13l7-25.93h7.71l6.63,25.68,2.21,8.46,2.54-8.54,7.59-25.6h7.3Zm50.53,0a15.74,15.74,0,0,1-1.5-5.46,28,28,0,0,1-8,5,23.24,23.24,0,0,1-8.27,1.46q-7.31,0-11.22-3.57a11.78,11.78,0,0,1-3.92-9.11,12.17,12.17,0,0,1,1.48-5.94,12.37,12.37,0,0,1,3.88-4.32,18.48,18.48,0,0,1,5.4-2.46,53.44,53.44,0,0,1,6.67-1.12,69,69,0,0,0,13.38-2.59c0-1,.05-1.68.05-2,0-3.05-.71-5.21-2.13-6.46q-2.88-2.53-8.55-2.54c-3.53,0-6.13.62-7.82,1.85s-2.92,3.43-3.73,6.57l-7.34-1a18.21,18.21,0,0,1,3.3-7.61,14.44,14.44,0,0,1,6.63-4.46,29.62,29.62,0,0,1,10-1.57,26.53,26.53,0,0,1,9.21,1.34,12.21,12.21,0,0,1,5.21,3.35,12,12,0,0,1,2.34,5.11,42.49,42.49,0,0,1,.37,6.92v10q0,10.47.48,13.24a16.5,16.5,0,0,0,1.9,5.31Zm38.49-35.89a10.71,10.71,0,0,0-5.51-1.63,7.14,7.14,0,0,0-4.42,1.48,8,8,0,0,0-2.79,4.11,29,29,0,0,0-1.25,8.75v23.18h-7.51V290.37h6.76v6.71q2.58-4.71,4.77-6.21a8.29,8.29,0,0,1,4.82-1.51,14.64,14.64,0,0,1,7.71,2.42Zm45.32,15.67h-33q.4,7.31,4.12,11.18a12.31,12.31,0,0,0,9.26,3.87,11.54,11.54,0,0,0,7.05-2.16,14.49,14.49,0,0,0,4.62-6.92l7.76.95a18.87,18.87,0,0,1-6.8,10.55q-5,3.75-12.67,3.76-9.72,0-15.41-6t-5.69-16.78q0-11.17,5.75-17.34a19.48,19.48,0,0,1,14.93-6.18A18.93,18.93,0,0,1,464,295.41q5.63,6,5.63,17C469.67,312.87,469.65,313.53,469.63,314.42Z"/><rect class="cls-1" y="139.71" width="512" height="116.28"/><path class="cls-3" d="M52.89,157.51c-5.52-1.77-31.73-1.1-40.66-1.22v81.57H30.14V208.28c15.2,0,28.87.94,36.29-13.1C72.67,182.45,68.54,161.07,52.89,157.51ZM49,188.17c-4.34,5.24-10.07,4.18-18.75,4.47V173.15a102.57,102.57,0,0,1,11.9.41C49.16,174.26,53.34,182.43,49,188.17Z"/><path class="cls-3" d="M123.5,195c9.54-8.68,11.24-25,2.54-33.4q-5.76-5.46-14.85-5.34H72.44l.06,81.57H90.76l.12-63.43H109.2c4-.32,6.19,3.92,3.21,6.83l-14.76,16.4c-1.78,2.29-1.62,5.24-1.46,7.87-.47,1.08,16.71,30.73,17.56,32.39l22.41.11-18.67-32.26Q115.45,203.08,123.5,195Z"/><rect class="cls-3" x="139.21" y="156.46" width="18.5" height="81.8"/><polygon class="cls-3" points="217.7 210.9 183.57 156.29 164.84 156.29 164.84 238.09 182.81 238.09 182.81 184.7 216.36 238.09 236.02 238.09 236.02 156.29 217.7 156.29 217.7 210.9"/><polygon class="cls-3" points="296.89 220.18 296.89 220.53 297.53 220.53 296.89 220.18"/><path class="cls-3" d="M261.65,208.57c-7-14.66,1.1-33.66,17.56-34.66h17.68V156.29c-.59-.06-24.7,0-24.51.17-31.15,4.43-40.43,47.91-21.23,69.14C263,240.37,280.76,238.05,296.89,238V220.53C283.09,220.52,268.62,223.27,261.65,208.57Z"/><rect class="cls-3" x="302.46" y="156.46" width="18.5" height="81.8"/><path class="cls-3" d="M384.94,181.38c.23-11.46-5.86-21-16.22-23.87-5.55-1.78-31.72-1.1-40.67-1.22v81.57H346V208.28C367.14,209.16,384.94,206.1,384.94,181.38Zm-20.1,6.79c-4.34,5.24-10.07,4.18-18.76,4.47V173.15a102.77,102.77,0,0,1,11.91.41C365,174.26,369.16,182.43,364.84,188.17Z"/><path class="cls-3" d="M424.11,158.47c-6.74-4.75-15.22-1.24-18.47,6.39L378.75,238H397l6.54-17.91h27.94L437.91,238H456C453.82,234.36,429,157.29,424.11,158.47Zm-15.43,47.65,8.87-24.1,8.69,24.1Z"/><path class="cls-3" d="M488.85,220.35c-8,.13-14.05-3-15.75-9.8-1.47-7.4-.49-45.33-.76-54.26h-17.5c.36,12.65-1,51.25,1.42,61.41,4,19,24.35,21.17,41.4,20V220.41Z"/></g></g></g></g></svg>